<svg width="500" height="99" viewBox="0 0 500 99" fill="none" xmlns="http://www.w3.org/2000/svg">
<g clip-path="url(#clip0)">
<path d="M76.8313 70.152C73.6953 70.152 70.6553 69.608 67.7113 68.52C64.8313 67.368 62.2393 65.736 59.9353 63.624C57.6953 61.512 55.9033 58.92 54.5593 55.848C53.2153 52.712 52.5433 49.16 52.5433 45.192C52.5433 41.224 53.2153 37.704 54.5593 34.632C55.9033 31.496 57.6953 28.872 59.9353 26.76C62.2393 24.648 64.8313 23.048 67.7113 21.96C70.6553 20.808 73.6953 20.232 76.8313 20.232C79.9673 20.232 82.9753 20.808 85.8553 21.96C88.7993 23.048 91.3913 24.648 93.6313 26.76C95.9353 28.872 97.7593 31.496 99.1033 34.632C100.447 37.704 101.119 41.224 101.119 45.192C101.119 49.16 100.447 52.712 99.1033 55.848C97.7593 58.92 95.9353 61.512 93.6313 63.624C91.3913 65.736 88.7993 67.368 85.8553 68.52C82.9753 69.608 79.9673 70.152 76.8313 70.152ZM76.8313 58.728C80.0953 58.728 82.5273 57.512 84.1273 55.08C85.7913 52.648 86.6233 49.352 86.6233 45.192C86.6233 41.032 85.7913 37.736 84.1273 35.304C82.5273 32.872 80.0953 31.656 76.8313 31.656C73.5673 31.656 71.1033 32.872 69.4393 35.304C67.8393 37.736 67.0393 41.032 67.0393 45.192C67.0393 49.352 67.8393 52.648 69.4393 55.08C71.1033 57.512 73.5673 58.728 76.8313 58.728ZM127.002 70.152C121.562 70.152 117.626 68.424 115.194 64.968C112.762 61.512 111.546 56.776 111.546 50.76V21.384H125.658V48.936C125.658 52.136 126.138 54.472 127.098 55.944C128.058 57.416 129.882 58.152 132.57 58.152C134.362 58.152 135.93 57.768 137.274 57C138.682 56.232 140.218 54.792 141.882 52.68V21.384H155.994V69H144.474L143.418 62.184H143.034C140.922 64.616 138.586 66.568 136.026 68.04C133.466 69.448 130.458 70.152 127.002 70.152ZM174.292 69V21.384H185.812L186.964 31.752H187.252C189.62 27.848 192.468 24.968 195.796 23.112C199.124 21.192 202.708 20.232 206.548 20.232C208.66 20.232 210.356 20.392 211.636 20.712C212.98 21.032 214.356 21.512 215.764 22.152L212.884 33.96C211.412 33.512 210.068 33.192 208.852 33C207.7 32.744 206.228 32.616 204.436 32.616C201.492 32.616 198.58 33.48 195.7 35.208C192.884 36.936 190.452 39.944 188.404 44.232V69H174.292Z" fill="#FF5353"/>
<path d="M253.935 70.152C250.287 70.152 246.895 69.608 243.759 68.52C240.687 67.432 237.999 65.864 235.695 63.816C233.391 61.704 231.599 59.144 230.319 56.136C229.039 53.064 228.399 49.608 228.399 45.768C228.399 41.864 229.071 38.408 230.415 35.4C231.823 32.328 233.711 29.736 236.079 27.624C238.447 25.512 241.199 23.912 244.335 22.824C247.535 21.736 250.895 21.192 254.415 21.192C258.255 21.192 261.551 21.864 264.303 23.208C267.119 24.552 269.487 26.152 271.407 28.008L267.471 33.096C265.551 31.432 263.535 30.12 261.423 29.16C259.375 28.2 257.135 27.72 254.703 27.72C252.015 27.72 249.551 28.168 247.311 29.064C245.071 29.896 243.151 31.112 241.551 32.712C240.015 34.312 238.799 36.232 237.903 38.472C237.007 40.648 236.559 43.08 236.559 45.768C236.559 48.456 236.975 50.888 237.807 53.064C238.703 55.24 239.919 57.128 241.455 58.728C243.055 60.264 244.943 61.48 247.119 62.376C249.359 63.208 251.823 63.624 254.511 63.624C257.391 63.624 260.015 63.08 262.383 61.992C264.815 60.84 266.991 59.432 268.911 57.768L272.463 62.856C269.839 65.16 266.959 66.952 263.823 68.232C260.687 69.512 257.391 70.152 253.935 70.152ZM307.081 70.152C304.009 70.152 301.065 69.608 298.249 68.52C295.497 67.432 293.065 65.864 290.953 63.816C288.841 61.704 287.145 59.144 285.865 56.136C284.649 53.064 284.041 49.608 284.041 45.768C284.041 41.864 284.649 38.408 285.865 35.4C287.145 32.328 288.841 29.736 290.953 27.624C293.065 25.512 295.497 23.912 298.249 22.824C301.065 21.736 304.009 21.192 307.081 21.192C310.153 21.192 313.065 21.736 315.817 22.824C318.633 23.912 321.097 25.512 323.209 27.624C325.321 29.736 326.985 32.328 328.201 35.4C329.481 38.408 330.121 41.864 330.121 45.768C330.121 49.608 329.481 53.064 328.201 56.136C326.985 59.144 325.321 61.704 323.209 63.816C321.097 65.864 318.633 67.432 315.817 68.52C313.065 69.608 310.153 70.152 307.081 70.152ZM307.081 63.624C309.321 63.624 311.337 63.208 313.129 62.376C314.985 61.48 316.553 60.264 317.833 58.728C319.177 57.128 320.201 55.24 320.905 53.064C321.609 50.888 321.961 48.456 321.961 45.768C321.961 43.08 321.609 40.648 320.905 38.472C320.201 36.232 319.177 34.312 317.833 32.712C316.553 31.112 314.985 29.896 313.129 29.064C311.337 28.168 309.321 27.72 307.081 27.72C304.841 27.72 302.793 28.168 300.937 29.064C299.145 29.896 297.577 31.112 296.233 32.712C294.953 34.312 293.961 36.232 293.257 38.472C292.553 40.648 292.201 43.08 292.201 45.768C292.201 48.456 292.553 50.888 293.257 53.064C293.961 55.24 294.953 57.128 296.233 58.728C297.577 60.264 299.145 61.48 300.937 62.376C302.793 63.208 304.841 63.624 307.081 63.624ZM349.86 69V22.344H356.388L357.06 33.384H357.348C359.78 29.608 362.756 26.632 366.276 24.456C369.86 22.28 373.828 21.192 378.18 21.192C379.908 21.192 381.508 21.352 382.98 21.672C384.452 21.928 385.924 22.408 387.396 23.112L385.572 29.928C383.908 29.352 382.5 28.936 381.348 28.68C380.26 28.424 378.788 28.296 376.932 28.296C373.412 28.296 370.02 29.32 366.756 31.368C363.556 33.352 360.548 36.776 357.732 41.64V69H349.86ZM419.422 70.152C416.35 70.152 413.566 69.608 411.07 68.52C408.638 67.432 406.526 65.864 404.734 63.816C402.942 61.704 401.566 59.144 400.606 56.136C399.646 53.128 399.166 49.672 399.166 45.768C399.166 41.992 399.742 38.6 400.894 35.592C402.11 32.52 403.678 29.928 405.598 27.816C407.582 25.704 409.854 24.072 412.414 22.92C414.974 21.768 417.63 21.192 420.382 21.192C423.198 21.192 425.694 21.736 427.87 22.824C430.11 23.848 432.254 25.32 434.302 27.24H434.59L434.206 18.6V0.647999H442.078V69H435.55L434.878 62.856H434.59C432.67 64.84 430.366 66.568 427.678 68.04C425.054 69.448 422.302 70.152 419.422 70.152ZM421.054 63.528C425.662 63.528 430.046 61.192 434.206 56.52V33.288C432.094 31.304 430.014 29.896 427.966 29.064C425.982 28.232 423.966 27.816 421.918 27.816C419.87 27.816 417.95 28.264 416.158 29.16C414.43 29.992 412.894 31.208 411.55 32.808C410.27 34.344 409.246 36.2 408.478 38.376C407.71 40.552 407.326 42.984 407.326 45.672C407.326 51.304 408.51 55.688 410.878 58.824C413.31 61.96 416.702 63.528 421.054 63.528Z" fill="#FCF896"/>
</g>
<defs>
<clipPath id="clip0">
<rect width="500" height="99" fill="white"/>
</clipPath>
</defs>
</svg>
