<svg width="500" height="500" viewBox="0 0 500 500" fill="none" xmlns="http://www.w3.org/2000/svg">
<path d="M76.8313 271.152C73.6953 271.152 70.6553 270.608 67.7113 269.52C64.8313 268.368 62.2393 266.736 59.9353 264.624C57.6953 262.512 55.9033 259.92 54.5593 256.848C53.2153 253.712 52.5433 250.16 52.5433 246.192C52.5433 242.224 53.2153 238.704 54.5593 235.632C55.9033 232.496 57.6953 229.872 59.9353 227.76C62.2393 225.648 64.8313 224.048 67.7113 222.96C70.6553 221.808 73.6953 221.232 76.8313 221.232C79.9673 221.232 82.9753 221.808 85.8553 222.96C88.7993 224.048 91.3913 225.648 93.6313 227.76C95.9353 229.872 97.7593 232.496 99.1033 235.632C100.447 238.704 101.119 242.224 101.119 246.192C101.119 250.16 100.447 253.712 99.1033 256.848C97.7593 259.92 95.9353 262.512 93.6313 264.624C91.3913 266.736 88.7993 268.368 85.8553 269.52C82.9753 270.608 79.9673 271.152 76.8313 271.152ZM76.8313 259.728C80.0953 259.728 82.5273 258.512 84.1273 256.08C85.7913 253.648 86.6233 250.352 86.6233 246.192C86.6233 242.032 85.7913 238.736 84.1273 236.304C82.5273 233.872 80.0953 232.656 76.8313 232.656C73.5673 232.656 71.1033 233.872 69.4393 236.304C67.8393 238.736 67.0393 242.032 67.0393 246.192C67.0393 250.352 67.8393 253.648 69.4393 256.08C71.1033 258.512 73.5673 259.728 76.8313 259.728ZM127.002 271.152C121.562 271.152 117.626 269.424 115.194 265.968C112.762 262.512 111.546 257.776 111.546 251.76V222.384H125.658V249.936C125.658 253.136 126.138 255.472 127.098 256.944C128.058 258.416 129.882 259.152 132.57 259.152C134.362 259.152 135.93 258.768 137.274 258C138.682 257.232 140.218 255.792 141.882 253.68V222.384H155.994V270H144.474L143.418 263.184H143.034C140.922 265.616 138.586 267.568 136.026 269.04C133.466 270.448 130.458 271.152 127.002 271.152ZM174.292 270V222.384H185.812L186.964 232.752H187.252C189.62 228.848 192.468 225.968 195.796 224.112C199.124 222.192 202.708 221.232 206.548 221.232C208.66 221.232 210.356 221.392 211.636 221.712C212.98 222.032 214.356 222.512 215.764 223.152L212.884 234.96C211.412 234.512 210.068 234.192 208.852 234C207.7 233.744 206.228 233.616 204.436 233.616C201.492 233.616 198.58 234.48 195.7 236.208C192.884 237.936 190.452 240.944 188.404 245.232V270H174.292Z" fill="#FF5353"/>
<path d="M253.935 271.152C250.287 271.152 246.895 270.608 243.759 269.52C240.687 268.432 237.999 266.864 235.695 264.816C233.391 262.704 231.599 260.144 230.319 257.136C229.039 254.064 228.399 250.608 228.399 246.768C228.399 242.864 229.071 239.408 230.415 236.4C231.823 233.328 233.711 230.736 236.079 228.624C238.447 226.512 241.199 224.912 244.335 223.824C247.535 222.736 250.895 222.192 254.415 222.192C258.255 222.192 261.551 222.864 264.303 224.208C267.119 225.552 269.487 227.152 271.407 229.008L267.471 234.096C265.551 232.432 263.535 231.12 261.423 230.16C259.375 229.2 257.135 228.72 254.703 228.72C252.015 228.72 249.551 229.168 247.311 230.064C245.071 230.896 243.151 232.112 241.551 233.712C240.015 235.312 238.799 237.232 237.903 239.472C237.007 241.648 236.559 244.08 236.559 246.768C236.559 249.456 236.975 251.888 237.807 254.064C238.703 256.24 239.919 258.128 241.455 259.728C243.055 261.264 244.943 262.48 247.119 263.376C249.359 264.208 251.823 264.624 254.511 264.624C257.391 264.624 260.015 264.08 262.383 262.992C264.815 261.84 266.991 260.432 268.911 258.768L272.463 263.856C269.839 266.16 266.959 267.952 263.823 269.232C260.687 270.512 257.391 271.152 253.935 271.152ZM307.081 271.152C304.009 271.152 301.065 270.608 298.249 269.52C295.497 268.432 293.065 266.864 290.953 264.816C288.841 262.704 287.145 260.144 285.865 257.136C284.649 254.064 284.041 250.608 284.041 246.768C284.041 242.864 284.649 239.408 285.865 236.4C287.145 233.328 288.841 230.736 290.953 228.624C293.065 226.512 295.497 224.912 298.249 223.824C301.065 222.736 304.009 222.192 307.081 222.192C310.153 222.192 313.065 222.736 315.817 223.824C318.633 224.912 321.097 226.512 323.209 228.624C325.321 230.736 326.985 233.328 328.201 236.4C329.481 239.408 330.121 242.864 330.121 246.768C330.121 250.608 329.481 254.064 328.201 257.136C326.985 260.144 325.321 262.704 323.209 264.816C321.097 266.864 318.633 268.432 315.817 269.52C313.065 270.608 310.153 271.152 307.081 271.152ZM307.081 264.624C309.321 264.624 311.337 264.208 313.129 263.376C314.985 262.48 316.553 261.264 317.833 259.728C319.177 258.128 320.201 256.24 320.905 254.064C321.609 251.888 321.961 249.456 321.961 246.768C321.961 244.08 321.609 241.648 320.905 239.472C320.201 237.232 319.177 235.312 317.833 233.712C316.553 232.112 314.985 230.896 313.129 230.064C311.337 229.168 309.321 228.72 307.081 228.72C304.841 228.72 302.793 229.168 300.937 230.064C299.145 230.896 297.577 232.112 296.233 233.712C294.953 235.312 293.961 237.232 293.257 239.472C292.553 241.648 292.201 244.08 292.201 246.768C292.201 249.456 292.553 251.888 293.257 254.064C293.961 256.24 294.953 258.128 296.233 259.728C297.577 261.264 299.145 262.48 300.937 263.376C302.793 264.208 304.841 264.624 307.081 264.624ZM349.86 270V223.344H356.388L357.06 234.384H357.348C359.78 230.608 362.756 227.632 366.276 225.456C369.86 223.28 373.828 222.192 378.18 222.192C379.908 222.192 381.508 222.352 382.98 222.672C384.452 222.928 385.924 223.408 387.396 224.112L385.572 230.928C383.908 230.352 382.5 229.936 381.348 229.68C380.26 229.424 378.788 229.296 376.932 229.296C373.412 229.296 370.02 230.32 366.756 232.368C363.556 234.352 360.548 237.776 357.732 242.64V270H349.86ZM419.422 271.152C416.35 271.152 413.566 270.608 411.07 269.52C408.638 268.432 406.526 266.864 404.734 264.816C402.942 262.704 401.566 260.144 400.606 257.136C399.646 254.128 399.166 250.672 399.166 246.768C399.166 242.992 399.742 239.6 400.894 236.592C402.11 233.52 403.678 230.928 405.598 228.816C407.582 226.704 409.854 225.072 412.414 223.92C414.974 222.768 417.63 222.192 420.382 222.192C423.198 222.192 425.694 222.736 427.87 223.824C430.11 224.848 432.254 226.32 434.302 228.24H434.59L434.206 219.6V201.648H442.078V270H435.55L434.878 263.856H434.59C432.67 265.84 430.366 267.568 427.678 269.04C425.054 270.448 422.302 271.152 419.422 271.152ZM421.054 264.528C425.662 264.528 430.046 262.192 434.206 257.52V234.288C432.094 232.304 430.014 230.896 427.966 230.064C425.982 229.232 423.966 228.816 421.918 228.816C419.87 228.816 417.95 229.264 416.158 230.16C414.43 230.992 412.894 232.208 411.55 233.808C410.27 235.344 409.246 237.2 408.478 239.376C407.71 241.552 407.326 243.984 407.326 246.672C407.326 252.304 408.51 256.688 410.878 259.824C413.31 262.96 416.702 264.528 421.054 264.528Z" fill="#FCF896"/>
</svg>
